<?xml version="1.0" standalone="no"?>
<!DOCTYPE svg PUBLIC "-//W3C//DTD SVG 20010904//EN"
 "http://www.w3.org/TR/2001/REC-SVG-20010904/DTD/svg10.dtd">
<svg version="1.0" xmlns="http://www.w3.org/2000/svg"
 width="1280.000000pt" height="640.000000pt" viewBox="0 0 1280.000000 640.000000"
 preserveAspectRatio="xMidYMid meet">
<metadata>
Created by potrace 1.15, written by Peter Selinger 2001-2017
</metadata>
<g transform="translate(0.000000,640.000000) scale(0.100000,-0.100000)"
fill="#000000" stroke="none">
<path d="M10603 5299 c-908 -55 -1478 -408 -1634 -1013 -24 -90 -36 -270 -25
-360 l7 -56 1909 0 1908 0 7 77 c22 229 -50 492 -192 706 -107 161 -306 326
-517 427 -369 176 -888 254 -1463 219z"/>
<path d="M6190 5133 c-489 -22 -915 -141 -1199 -336 -94 -65 -227 -190 -292
-277 -95 -126 -174 -305 -204 -461 -16 -86 -21 -260 -10 -323 l7 -36 1904 0
c1805 0 1905 1 1912 18 12 29 7 274 -6 337 -98 455 -409 774 -922 946 -315
105 -740 152 -1190 132z"/>
<path d="M1670 5023 c-514 -39 -901 -160 -1176 -369 -88 -67 -217 -200 -271
-279 -127 -188 -199 -425 -191 -633 3 -88 5 -95 31 -118 l28 -24 1860 0 1861
0 30 31 31 30 -6 132 c-12 299 -124 545 -345 759 -281 272 -676 419 -1255 467
-117 10 -487 12 -597 4z"/>
<path d="M9560 3715 c-248 -56 -420 -204 -436 -376 -7 -72 10 -94 69 -90 9 0
23 12 29 26 l11 25 503 0 c499 0 503 0 509 -21 10 -30 52 -43 81 -24 13 8 24
22 24 30 0 13 66 15 499 15 l499 0 30 -30 c17 -16 36 -30 42 -30 7 0 25 14 40
30 l28 30 499 0 498 0 10 -22 c13 -30 65 -36 90 -12 14 14 16 27 10 68 -24
185 -194 329 -452 382 -94 20 -285 14 -378 -10 -104 -28 -224 -93 -287 -157
l-58 -57 -59 58 c-67 65 -184 129 -291 157 -95 26 -340 25 -430 -1 -114 -33
-210 -86 -279 -152 l-63 -62 -59 58 c-64 63 -181 127 -284 155 -85 23 -310 29
-395 10z"/>
<path d="M5145 3570 c-298 -47 -513 -225 -523 -435 -4 -66 -2 -72 23 -98 51
-50 132 -31 161 39 l14 34 455 0 455 0 11 -27 c19 -50 49 -73 94 -73 51 0 82
21 93 63 l8 32 462 3 462 2 0 -21 c0 -11 13 -34 29 -50 55 -55 148 -30 167 45
l6 26 458 0 458 0 6 -26 c18 -71 106 -98 163 -50 26 22 28 30 27 93 -2 183
-176 356 -430 424 -113 31 -335 31 -448 1 -111 -31 -215 -84 -280 -143 l-56
-51 -52 47 c-66 59 -186 120 -291 147 -115 31 -327 30 -442 -1 -104 -28 -212
-81 -283 -140 l-58 -48 -49 44 c-64 56 -187 117 -290 143 -93 24 -263 33 -350
20z"/>
<path d="M123 3405 c-17 -7 -36 -22 -42 -34 -19 -35 -13 -88 13 -118 l24 -28
1796 -3 1796 -2 32 29 c44 39 46 98 5 139 l-27 27 -1783 2 c-1499 2 -1787 0
-1814 -12z"/>
<path d="M9068 3149 c-25 -14 -24 -75 1 -89 13 -7 590 -10 1794 -10 1706 0
1775 1 1790 18 22 24 21 55 -1 75 -17 16 -156 17 -1793 17 -1186 -1 -1780 -4
-1791 -11z"/>
<path d="M171 3088 c-202 -58 -229 -333 -42 -430 l53 -28 1730 0 c1298 0 1741
3 1770 12 22 6 59 29 83 50 57 51 79 107 73 192 -5 80 -39 135 -113 181 l-48
30 -1736 2 c-1116 1 -1748 -2 -1770 -9z"/>
<path d="M4671 2859 c-185 -37 -226 -280 -63 -376 l47 -28 1710 -3 c1202 -2
1725 0 1761 8 125 27 197 161 149 278 -20 47 -50 78 -100 105 l-40 22 -1710 2
c-942 0 -1730 -3 -1754 -8z"/>
<path d="M9165 2865 c-5 -2 -27 -6 -48 -10 -49 -8 -121 -73 -138 -123 -32 -98
4 -199 89 -249 l47 -28 1710 -3 c1254 -2 1724 0 1763 8 125 27 195 161 147
278 -20 47 -50 78 -100 105 l-40 22 -1710 2 c-940 1 -1714 0 -1720 -2z"/>
<path d="M63 2526 c-26 -23 -28 -30 -31 -118 -8 -208 64 -445 191 -633 23 -33
81 -101 129 -151 258 -267 624 -419 1173 -486 146 -17 702 -18 845 0 338 41
568 103 795 212 430 207 684 571 702 1007 l6 132 -31 30 -30 31 -1861 0 -1860
0 -28 -24z"/>
<path d="M4499 2283 c-29 -76 -41 -171 -36 -303 3 -118 8 -146 36 -228 79
-234 232 -399 486 -522 162 -78 285 -106 540 -119 88 -4 531 -7 985 -5 872 3
990 8 1155 52 316 85 552 287 639 546 54 159 40 390 -33 559 l-20 47 -1871 0
-1870 0 -11 -27z"/>
<path d="M8967 2303 c-3 -5 -13 -35 -23 -68 -14 -47 -18 -94 -19 -215 0 -177
12 -235 74 -365 71 -148 164 -251 319 -353 157 -102 314 -157 527 -183 141
-17 1894 -17 2050 1 160 17 268 43 372 88 364 157 550 425 530 767 -6 99 -40
243 -72 306 l-16 29 -1869 0 c-1028 0 -1871 -3 -1873 -7z"/>
</g>
</svg>
